<?xml version="1.0" standalone="no"?><!DOCTYPE svg PUBLIC "-//W3C//DTD SVG 1.1//EN" "http://www.w3.org/Graphics/SVG/1.1/DTD/svg11.dtd"><svg t="1552743253223" class="icon" style="" viewBox="0 0 1024 1024" version="1.1" xmlns="http://www.w3.org/2000/svg" p-id="851" xmlns:xlink="http://www.w3.org/1999/xlink" width="200" height="200"><defs><style type="text/css"></style></defs><path d="M688.700521 179.760621c-16.671672 30.271404-54.750922 41.215189-85.086325 24.639515-30.271404-16.639672-41.343186-54.590925-24.671514-84.798331 16.671672-30.207405 54.750922-41.183189 85.086325-24.639515C694.33241 111.601963 705.404192 149.585215 688.700521 179.760621zM997.718437 1.108138c-25.535497-5.0879-103.901954 7.13586-155.772933 44.383126-39.551221 28.351442-63.326753 63.518749-75.422515 116.893699-8.959824 39.519222 2.431952 87.038286 11.135781 113.469766 10.463794 31.647377 51.070995 143.581173 59.998819 188.796283-40.191209-127.773484-122.013598-189.628267-265.562772-205.147961-90.078227-9.759808-190.46025 30.719395-252.539028 86.942288-11.19978 10.751788-37.471262 40.223208-70.398614 90.94221-16.415677 31.327383-37.695258 96.734096-37.823255 158.204885-0.063999 44.511124 4.607909 86.526297 18.27164 123.869561 14.879707 4.799906 267.034743 1.087979 357.59296-161.724816 29.567418-53.150954 36.767276-182.428408 22.975548-213.179803-168.63668-38.175248-278.682513 121.149615-310.713883 214.84377 33.055349-110.461825 120.829621-246.523147 286.650357-249.435089 107.645881-1.951962 174.844558 80.958406 204.891966 156.44492 18.559635 46.71908 70.07862 224.059589-114.397748 345.497198-106.781898 70.334615-243.163213 95.390122-370.520705 49.343029-110.973815-40.191209-190.940241-124.44555-227.739516-225.147567-1.311974-4.031921-2.655948-8.031842-3.871924-12.127761C13.70581 415.307984 129.575529 197.392274 334.339498 128.753625c-5.56789 1.375973-11.19978 2.751946-16.799669 4.383914C84.136424 200.65621-50.196932 443.883421 17.577734 676.454842c67.742666 232.571421 311.89786 366.360787 545.333264 298.874116 44.255129-12.831747 84.926328-31.967371 121.341611-56.094896 75.870506-47.615063 137.853286-118.109675 173.308588-205.979945 47.615063-117.981677 23.391539-229.915474-19.903608-337.465356-27.519458-68.414653-56.286892-184.89236 93.662156-297.530142-46.175091 41.471184-125.373532 122.173595-90.974209 235.771358 15.839688 0.575989 50.30301-2.367953 65.406712-7.807846 31.807374-11.583772 102.813976-55.070916 117.053696-153.308982C1029.749807 105.074091 1003.574322 10.739949 997.718437 1.108138z" p-id="852" fill="#ffffff"></path></svg>